<?xml version="1.0" encoding="utf-8"?>
<!-- Generator: Adobe Illustrator 25.2.0, SVG Export Plug-In . SVG Version: 6.00 Build 0)  -->
<svg version="1.1" id="Layer_1" xmlns="http://www.w3.org/2000/svg" xmlns:xlink="http://www.w3.org/1999/xlink" x="0px" y="0px"
     viewBox="0 0 425 502" style="enable-background:new 0 0 425 502;" xml:space="preserve">
<style type="text/css">
	.st0{fill:none;stroke:#222222;stroke-miterlimit:10;}
	.st1{fill:none;stroke:#222222;}
	.st2{enable-background:new    ;}
	.st3{fill:#FFFFFF;stroke:#000000;stroke-miterlimit:1;}
	.st4{clip-path:url(#SVGID_5_);}
	.st5{clip-path:url(#SVGID_9_);}
	.st6{clip-path:url(#SVGID_13_);}
	.st7{clip-path:url(#SVGID_17_);}
	.st8{clip-path:url(#SVGID_22_);}
	.st9{clip-path:url(#SVGID_23_);}
	.st10{fill:none;stroke:#000000;stroke-miterlimit:1;}
	.st11{fill:#ffe600;stroke:#000000;stroke-miterlimit:1;}
	.st12{clip-path:url(#SVGID_32_);}
	.st13{clip-path:url(#SVGID_33_);}
	.st14{clip-path:url(#SVGID_37_);}
</style>
    <g>
	<polygon class="st0" points="156.5,20.3 156.5,184.7 388.5,318.3 388.5,154.7 	"/>
        <polygon class="st0" points="149,7.8 149,189.1 397,333.8 397,150.8 	"/>
        <line class="st0" x1="397" y1="150.8" x2="404" y2="144.8"/>
        <polyline class="st0" points="149,189.1 5,273.8 259,420.8 397,333.8 404,325 404,144.8 160,3.8 149,7.8 	"/>
        <polyline class="st0" points="5,273.8 5,286.8 259,433.8 397,349.9 397,333.8 	"/>
        <line class="st0" x1="259" y1="420.8" x2="259" y2="433.8"/>
        <polygon class="st0" points="141,287.8 101,311.8 175.5,353.8 215.5,330.9 	"/>
        <polygon class="st0" points="351.4,367.1 351,374.8 364.5,367.1 364,359.8 	"/>
        <polygon class="st0" points="374.2,353.8 374.2,359.8 386.9,353.8 386.9,347.7 	"/>
        <path class="st0" d="M359.9,369.7l60.1,34.1l-60.1,39.3c0,0-20.2-18-50.2,0c-7.6,4.6-17.2,13.1-29.8,19.7c-5.2,2.7-15,11,0,22
		s30,14,44,9s40-21,43-27s3.4-14.9-7-24"/>
        <path class="st0" d="M272.1,472c0,0,13.9,16.8,31.9,19.8s18-14,24-18s25-13,40-10"/>
        <path class="st1" d="M326,455.8l6,3c0,0,3-12,10-11l6,2l-7-5C341,444.8,334,440.8,326,455.8z"/>
        <line class="st0" x1="332" y1="458.8" x2="348" y2="449.8"/>
        <polygon class="st0" points="116,254.8 141,269.8 150,263.8 125,248.8 	"/>
        <polygon class="st0" points="145,271.8 214,312.8 224,306.8 154,266.3 	"/>
        <polygon class="st0" points="219,314.8 230,320.5 238.4,314.8 228,308.8 	"/>
        <polygon class="st0" points="129,247.8 140,253.5 148.4,247.8 138,241.8 	"/>
        <polygon class="st0" points="143,255.8 154,261.5 162.4,255.8 152,249.8 	"/>
        <polygon class="st0" points="158,264.8 169,270.5 177.4,264.8 167,258.8 	"/>
        <polygon class="st0" points="173,272.8 184,278.5 192.4,272.8 182,266.8 	"/>
        <polygon class="st0" points="187,281.8 198,287.5 206.4,281.8 196,275.8 	"/>
        <polygon class="st0" points="202,289.8 213,295.5 221.4,289.8 211,283.8 	"/>
        <polygon class="st0" points="216,298.8 227,304.5 235.4,298.8 225,292.8 	"/>
        <polygon class="st0" points="232,306.8 243,312.5 251.4,306.8 241,300.8 	"/>
        <polygon class="st0" points="246,315.8 257,321.5 265.4,315.8 255,309.8 	"/>
        <polygon class="st0" points="260,323.8 271,329.5 279.4,323.8 269,317.8 	"/>
        <polygon class="st0" points="170,257.8 181,263.5 189.4,257.8 179,251.8 	"/>
        <polygon class="st0" points="185,265.8 196,271.5 204.4,265.8 194,259.8 	"/>
        <polygon class="st0" points="199,274.8 210,280.5 218.4,274.8 208,268.8 	"/>
        <polygon class="st0" points="214,282.8 225,288.5 233.4,282.8 223,276.8 	"/>
        <polygon class="st0" points="228,291.8 239,297.5 247.4,291.8 237,285.8 	"/>
        <polygon class="st0" points="244,299.8 255,305.5 263.4,299.8 253,293.8 	"/>
        <polygon class="st0" points="258,308.8 269,314.5 277.4,308.8 267,302.8 	"/>
        <polygon class="st0" points="174,244.8 185,250.5 193.4,244.8 183,238.8 	"/>
        <polygon class="st0" points="189,253.8 200,259.5 208.4,253.8 198,247.8 	"/>
        <polygon class="st0" points="204,261.8 215,267.5 223.4,261.8 213,255.8 	"/>
        <polygon class="st0" points="218,270.8 229,276.5 237.4,270.8 227,264.8 	"/>
        <polygon class="st0" points="233,278.8 244,284.5 252.4,278.8 242,272.8 	"/>
        <polygon class="st0" points="247,287.8 258,293.5 266.4,287.8 256,281.8 	"/>
        <polygon class="st0" points="263,295.8 274,301.5 282.4,295.8 272,289.8 	"/>
        <polygon class="st0" points="277,304.8 288,310.5 296.4,304.8 286,298.8 	"/>
        <polygon class="st0" points="233,322.8 244,328.5 252.4,322.8 242,316.8 	"/>
        <polygon class="st0" points="248,331.8 259,337.5 267.4,331.8 257,325.8 	"/>
        <polygon class="st0" points="263,340.8 274,346.5 282.4,340.8 272,334.8 	"/>
        <polygon class="st0" points="141,239.8 166,253.8 174.9,249.8 151,234.8 	"/>
        <polygon class="st0" points="154,232.8 170,242.5 179,236.8 163,226.8 	"/>
        <polygon class="st0" points="291.4,312.5 300,305.8 319.3,317.8 310,323.8 	"/>
        <polygon class="st0" points="282.4,310.5 308.1,325.8 286,338.8 274.6,331.6 285.4,323.8 272.7,316.8 	"/>
</g>
    <g>
	<g class="st2">
		<g class="st2">
			<defs>
				<path id="SVGID_1_" class="st2" d="M200.1,125.1H222c2.9,1.8,5.8,3.3,7.9,3.3H208C205.8,128.5,203,126.9,200.1,125.1z"/>
			</defs>
            <use xlink:href="#SVGID_1_"  style="overflow:visible;fill:#FFFFFF;"/>
            <clipPath id="SVGID_2_">
				<use xlink:href="#SVGID_1_"  style="overflow:visible;"/>
			</clipPath>
            <use xlink:href="#SVGID_1_"  style="overflow:visible;fill:none;stroke:#000000;stroke-miterlimit:1;"/>
		</g>
        <g>
			<line class="st3" x1="233.7" y1="186.8" x2="234.1" y2="174"/>
            <path class="st3" d="M233.7,186.8"/>
            <line class="st3" x1="256" y1="174" x2="255.7" y2="186.8"/>
		</g>
        <g>
			<path class="st3" d="M234.1,135.3"/>
            <line class="st3" x1="255.7" y1="125.1" x2="256" y2="135.3"/>
            <line class="st3" x1="234.1" y1="135.3" x2="233.7" y2="125.1"/>
		</g>
        <g class="st2">
			<defs>
				<path id="SVGID_3_" class="st2" d="M234.1,174"/>
			</defs>
            <defs>
				<path id="SVGID_4_" class="st2" d="M234.1,174c0.2-9.3-4-18.4-12.4-25.3h21.9c8.4,6.9,12.6,16,12.4,25.3"/>
			</defs>
            <use xlink:href="#SVGID_3_"  style="overflow:visible;fill:#FFFFFF;"/>
            <use xlink:href="#SVGID_4_"  style="overflow:visible;fill:#FFFFFF;"/>
            <clipPath id="SVGID_5_">
				<use xlink:href="#SVGID_3_"  style="overflow:visible;"/>
			</clipPath>
            <clipPath id="SVGID_6_" class="st4">
				<use xlink:href="#SVGID_4_"  style="overflow:visible;"/>
			</clipPath>
            <use xlink:href="#SVGID_3_"  style="overflow:visible;fill:none;stroke:#000000;stroke-miterlimit:1;"/>
            <use xlink:href="#SVGID_4_"  style="overflow:visible;fill:none;stroke:#000000;stroke-miterlimit:1;"/>
		</g>
        <g class="st2">
			<defs>
				<path id="SVGID_7_" class="st2" d="M256,135.3"/>
			</defs>
            <defs>
				<path id="SVGID_8_" class="st2" d="M256,135.3c0.3,9-1.6,14.4-7.4,14.4h-21.9c5.8,0,7.7-5.4,7.4-14.4"/>
			</defs>
            <use xlink:href="#SVGID_7_"  style="overflow:visible;fill:#FFFFFF;"/>
            <use xlink:href="#SVGID_8_"  style="overflow:visible;fill:#FFFFFF;"/>
            <clipPath id="SVGID_9_">
				<use xlink:href="#SVGID_7_"  style="overflow:visible;"/>
			</clipPath>
            <clipPath id="SVGID_10_" class="st5">
				<use xlink:href="#SVGID_8_"  style="overflow:visible;"/>
			</clipPath>
            <use xlink:href="#SVGID_7_"  style="overflow:visible;fill:none;stroke:#000000;stroke-miterlimit:1;"/>
            <use xlink:href="#SVGID_8_"  style="overflow:visible;fill:none;stroke:#000000;stroke-miterlimit:1;"/>
		</g>
        <g class="st2">
			<defs>
				<path id="SVGID_11_" class="st2" d="M233.7,125.1"/>
			</defs>
            <defs>
				<path id="SVGID_12_" class="st2" d="M233.7,125.1c-0.1-3.8,0.1-6.3,2.3-6.3h21.9c-2.2,0-2.4,2.5-2.3,6.3"/>
			</defs>
            <use xlink:href="#SVGID_11_"  style="overflow:visible;fill:#FFFFFF;"/>
            <use xlink:href="#SVGID_12_"  style="overflow:visible;fill:#FFFFFF;"/>
            <clipPath id="SVGID_13_">
				<use xlink:href="#SVGID_11_"  style="overflow:visible;"/>
			</clipPath>
            <clipPath id="SVGID_14_" class="st6">
				<use xlink:href="#SVGID_12_"  style="overflow:visible;"/>
			</clipPath>
            <use xlink:href="#SVGID_11_"  style="overflow:visible;fill:none;stroke:#000000;stroke-miterlimit:1;"/>
            <use xlink:href="#SVGID_12_"  style="overflow:visible;fill:none;stroke:#000000;stroke-miterlimit:1;"/>
		</g>
        <g class="st2">
			<defs>
				<path id="SVGID_15_" class="st2" d="M239.7,103.2"/>
			</defs>
            <defs>
				<path id="SVGID_16_" class="st2" d="M239.7,103.2c-7.3-4.5-14.5-8-19.9-8h21.9c5.4,0,12.6,3.6,19.9,8"/>
			</defs>
            <use xlink:href="#SVGID_15_"  style="overflow:visible;fill:#FFFFFF;"/>
            <use xlink:href="#SVGID_16_"  style="overflow:visible;fill:#FFFFFF;"/>
            <clipPath id="SVGID_17_">
				<use xlink:href="#SVGID_15_"  style="overflow:visible;"/>
			</clipPath>
            <clipPath id="SVGID_18_" class="st7">
				<use xlink:href="#SVGID_16_"  style="overflow:visible;"/>
			</clipPath>
            <use xlink:href="#SVGID_15_"  style="overflow:visible;fill:none;stroke:#000000;stroke-miterlimit:1;"/>
            <use xlink:href="#SVGID_16_"  style="overflow:visible;fill:none;stroke:#000000;stroke-miterlimit:1;"/>
		</g>
        <g class="st2">
			<defs>
				<path id="SVGID_19_" class="st2" d="M241.7,201.2c-8.2-5-8.1-10.1-7.9-14.4"/>
			</defs>
            <defs>
				<path id="SVGID_20_" class="st2" d="M241.7,201.2"/>
			</defs>
            <defs>
				<path id="SVGID_21_" class="st2" d="M255.7,186.8c-0.1,4.3-0.2,9.3,7.9,14.4"/>
			</defs>
            <use xlink:href="#SVGID_19_"  style="overflow:visible;fill:#FFFFFF;"/>
            <use xlink:href="#SVGID_20_"  style="overflow:visible;fill:#FFFFFF;"/>
            <use xlink:href="#SVGID_21_"  style="overflow:visible;fill:#FFFFFF;"/>
            <clipPath id="SVGID_22_">
				<use xlink:href="#SVGID_19_"  style="overflow:visible;"/>
			</clipPath>
            <clipPath id="SVGID_23_" class="st8">
				<use xlink:href="#SVGID_20_"  style="overflow:visible;"/>
			</clipPath>
            <clipPath id="SVGID_24_" class="st9">
				<use xlink:href="#SVGID_21_"  style="overflow:visible;"/>
			</clipPath>
            <use xlink:href="#SVGID_19_"  style="overflow:visible;fill:none;stroke:#000000;stroke-miterlimit:1;"/>
            <use xlink:href="#SVGID_20_"  style="overflow:visible;fill:none;stroke:#000000;stroke-miterlimit:1;"/>
            <use xlink:href="#SVGID_21_"  style="overflow:visible;fill:none;stroke:#000000;stroke-miterlimit:1;"/>
		</g>
        <g>
			<rect x="242.5" y="201.7" class="st3" width="21.9" height="16.4"/>
		</g>
        <g>
			<rect x="242.5" y="105" class="st3" width="21.9" height="16.8"/>
		</g>
        <g>
			<polyline class="st10" points="261.6,103.2 264.4,105 242.5,105 239.7,103.2 			"/>
		</g>
        <g>
			<path class="st11" d="M234.1,135.3c0.3,9-1.6,14.4-7.4,14.4c-1.4,0-3.1-0.3-5-1c8.4,6.9,12.6,16,12.4,25.3l-0.3,12.9
				c-0.1,4.3-0.2,9.3,7.9,14.4l0.8,0.5v16.4l-2.9-1.8c-16.3-10.1-29-23.8-28.5-40.1l0.3-13.5c0.2-9.5-5.4-14-11.3-17.7v-19.9
				c2.9,1.8,5.8,3.3,7.9,3.3c2.1,0,3.5-1.6,3.4-6.1L211,109c-0.2-10.1,3.3-13.8,8.8-13.8c5.4,0,12.6,3.6,19.9,8l2.8,1.7v16.8
				l-1.3-0.8c-2.4-1.4-4-2.1-5.1-2.1c-2.2,0-2.4,2.5-2.3,6.3L234.1,135.3"/>
		</g>
	</g>
        <g class="st2">
		<g>
			<polygon class="st3" points="275.4,221.6 297.3,221.6 298.6,222.4 276.7,222.4 			"/>
		</g>
            <g>
			<polyline class="st10" points="278.3,127 275.4,125.2 297.3,125.2 300.2,127 			"/>
		</g>
            <g class="st2">
			<defs>
				<path id="SVGID_25_" class="st2" d="M276.7,222.4h21.9c2.4,1.5,4,2.1,5.1,2.1l-21.9,0C280.7,224.5,279.1,223.9,276.7,222.4z"/>
			</defs>
                <use xlink:href="#SVGID_25_"  style="overflow:visible;fill:#FFFFFF;"/>
                <clipPath id="SVGID_26_">
				<use xlink:href="#SVGID_25_"  style="overflow:visible;"/>
			</clipPath>
                <use xlink:href="#SVGID_25_"  style="overflow:visible;fill:none;stroke:#000000;stroke-miterlimit:1;"/>
		</g>
            <g>
			<line class="st3" x1="306.8" y1="234.4" x2="306.5" y2="221"/>
                <line class="st3" x1="328.4" y1="221" x2="328.7" y2="234.4"/>
		</g>
            <g>
			<line class="st3" x1="306.5" y1="180.7" x2="306.8" y2="167.2"/>
                <line class="st3" x1="328.7" y1="167.2" x2="328.4" y2="180.7"/>
		</g>
            <g class="st2">
			<defs>
				<path id="SVGID_27_" class="st2" d="M328.7,234.4c0.2,10.1-3.3,13.8-8.8,13.8l-21.9,0c5.5,0,9-3.7,8.8-13.8"/>
			</defs>
                <use xlink:href="#SVGID_27_"  style="overflow:visible;fill:#FFFFFF;"/>
                <clipPath id="SVGID_28_">
				<use xlink:href="#SVGID_27_"  style="overflow:visible;"/>
			</clipPath>
                <use xlink:href="#SVGID_27_"  style="overflow:visible;fill:none;stroke:#000000;stroke-miterlimit:1;"/>
		</g>
            <g class="st2">
			<defs>
				<path id="SVGID_29_" class="st2" d="M306.8,167.2c0.4-16.3-12.2-30.1-28.5-40.1"/>
			</defs>
                <defs>
				<path id="SVGID_30_" class="st2" d="M306.8,167.2"/>
			</defs>
                <defs>
				<path id="SVGID_31_" class="st2" d="M300.2,127c16.3,10.1,29,23.9,28.5,40.1"/>
			</defs>
                <clipPath id="SVGID_32_">
				<use xlink:href="#SVGID_29_"  style="overflow:visible;"/>
			</clipPath>
                <clipPath id="SVGID_33_" class="st12">
				<use xlink:href="#SVGID_30_"  style="overflow:visible;"/>
			</clipPath>
                <clipPath id="SVGID_34_" class="st13">
				<use xlink:href="#SVGID_31_"  style="overflow:visible;"/>
			</clipPath>
                <use xlink:href="#SVGID_29_"  style="overflow:visible;fill:none;stroke:#000000;stroke-miterlimit:1;"/>
                <use xlink:href="#SVGID_30_"  style="overflow:visible;fill:none;stroke:#000000;stroke-miterlimit:1;"/>
                <use xlink:href="#SVGID_31_"  style="overflow:visible;fill:none;stroke:#000000;stroke-miterlimit:1;"/>
		</g>
            <g class="st2">
			<defs>
				<path id="SVGID_35_" class="st2" d="M306.5,221"/>
			</defs>
                <defs>
				<path id="SVGID_36_" class="st2" d="M306.5,221c-0.1-4.5,1.3-6.1,3.4-6.1h21.9c-2.1,0-3.5,1.6-3.4,6.1"/>
			</defs>
                <use xlink:href="#SVGID_35_"  style="overflow:visible;fill:#FFFFFF;"/>
                <use xlink:href="#SVGID_36_"  style="overflow:visible;fill:#FFFFFF;"/>
                <clipPath id="SVGID_37_">
				<use xlink:href="#SVGID_35_"  style="overflow:visible;"/>
			</clipPath>
                <clipPath id="SVGID_38_" class="st14">
				<use xlink:href="#SVGID_36_"  style="overflow:visible;"/>
			</clipPath>
                <use xlink:href="#SVGID_35_"  style="overflow:visible;fill:none;stroke:#000000;stroke-miterlimit:1;"/>
                <use xlink:href="#SVGID_36_"  style="overflow:visible;fill:none;stroke:#000000;stroke-miterlimit:1;"/>
		</g>
            <g>
			<path class="st11" d="M275.4,125.2l2.9,1.8c16.3,10.1,29,23.9,28.5,40.1l-0.3,13.5c-0.2,9.5,5.4,14,11.3,17.7v19.9
				c-2.9-1.8-5.8-3.3-7.9-3.3c-2.1,0-3.5,1.6-3.4,6.1l0.3,13.4c0.2,10.1-3.3,13.8-8.8,13.8c-5.4,0-12.6-3.6-19.9-8l-2.8-1.7v-16.8
				l1.3,0.8c2.4,1.5,4,2.1,5.1,2.1c2.2,0,2.4-2.5,2.3-6.3l-0.3-10.2c-0.3-9,1.6-14.4,7.5-14.4c1.4,0,3.1,0.3,5,1
				c-8.4-6.9-12.6-16-12.4-25.3l0.3-12.9c0.1-4.3,0.2-9.3-7.9-14.4l-0.8-0.5V125.2z"/>
		</g>
            <g>
			<rect x="317.8" y="198.3" class="st3" width="21.9" height="19.9"/>
		</g>
            <g class="st2">
			<defs>
				<path id="SVGID_39_" class="st2" d="M328.4,180.7c-0.2,9.5,5.4,14,11.3,17.7l-21.9,0c-5.9-3.7-11.5-8.2-11.3-17.7"/>
			</defs>
                <use xlink:href="#SVGID_39_"  style="overflow:visible;fill:#FFFFFF;"/>
                <clipPath id="SVGID_40_">
				<use xlink:href="#SVGID_39_"  style="overflow:visible;"/>
			</clipPath>
                <use xlink:href="#SVGID_39_"  style="overflow:visible;fill:none;stroke:#000000;stroke-miterlimit:1;"/>
		</g>
	</g>
</g>
</svg>
