<?xml version="1.0" encoding="utf-8"?>
<!-- Generator: Adobe Illustrator 25.2.0, SVG Export Plug-In . SVG Version: 6.00 Build 0)  -->
<svg version="1.1" id="Layer_1" xmlns="http://www.w3.org/2000/svg" xmlns:xlink="http://www.w3.org/1999/xlink" x="0px" y="0px"
     viewBox="0 0 425 502" style="enable-background:new 0 0 425 502;" xml:space="preserve">
<style type="text/css">
	.st0{fill:none;stroke:#222222;stroke-miterlimit:10;}
	.st1{fill:none;stroke:#222222;}
	.st2{enable-background:new    ;}
	.st3{fill:#ffe600;stroke:#000000;stroke-miterlimit:1;}
	.st4{clip-path:url(#SVGID_6_);enable-background:new    ;}
	.st5{fill:none;stroke:#000000;stroke-miterlimit:1;}
</style>
    <g>
	<polygon class="st0" points="155.3,22.1 155.3,186.4 387.3,320.1 387.3,156.5 	"/>
        <polygon class="st0" points="147.8,9.6 147.8,190.9 395.8,335.6 395.8,152.6 	"/>
        <line class="st0" x1="395.8" y1="152.6" x2="402.8" y2="146.6"/>
        <polyline class="st0" points="147.8,190.9 3.8,275.6 257.8,422.6 395.8,335.6 402.8,326.8 402.8,146.6 158.8,5.6 147.8,9.6 	"/>
        <polyline class="st0" points="3.8,275.6 3.8,288.5 257.8,435.6 395.8,351.7 395.8,335.6 	"/>
        <line class="st0" x1="257.8" y1="422.6" x2="257.8" y2="435.6"/>
        <polygon class="st0" points="139.8,289.6 99.8,313.6 174.2,355.6 214.3,332.6 	"/>
        <polygon class="st0" points="350.1,368.9 349.8,376.6 363.2,368.9 362.8,361.6 	"/>
        <polygon class="st0" points="372.9,355.6 372.9,361.6 385.7,355.6 385.7,349.5 	"/>
        <path class="st0" d="M358.7,371.5l60.1,34.1l-60.1,39.3c0,0-20.2-18-50.2,0c-7.6,4.6-17.2,13.1-29.8,19.7c-5.2,2.7-15,11,0,22
		s30,14,44,9s40-21,43-27s3.4-14.9-7-24"/>
        <path class="st0" d="M270.9,473.8c0,0,13.9,16.8,31.9,19.8s18-14,24-18s25-13,40-10"/>
        <path class="st1" d="M324.8,457.6l6,3c0,0,3-12,10-11l6,2l-7-5C339.8,446.6,332.8,442.6,324.8,457.6z"/>
        <line class="st0" x1="330.8" y1="460.6" x2="346.8" y2="451.6"/>
        <polygon class="st0" points="114.8,256.6 139.8,271.6 148.8,265.6 123.8,250.6 	"/>
        <polygon class="st0" points="143.8,273.6 212.8,314.6 222.8,308.6 152.7,268.1 	"/>
        <polygon class="st0" points="217.8,316.6 228.8,322.3 237.1,316.6 226.8,310.6 	"/>
        <polygon class="st0" points="127.8,249.6 138.8,255.3 147.1,249.6 136.8,243.6 	"/>
        <polygon class="st0" points="141.8,257.6 152.8,263.3 161.1,257.6 150.8,251.6 	"/>
        <polygon class="st0" points="156.8,266.6 167.8,272.3 176.1,266.6 165.8,260.6 	"/>
        <polygon class="st0" points="171.8,274.6 182.8,280.3 191.1,274.6 180.8,268.6 	"/>
        <polygon class="st0" points="185.8,283.6 196.8,289.3 205.1,283.6 194.8,277.6 	"/>
        <polygon class="st0" points="200.8,291.6 211.8,297.3 220.1,291.6 209.8,285.6 	"/>
        <polygon class="st0" points="214.8,300.6 225.8,306.3 234.1,300.6 223.8,294.6 	"/>
        <polygon class="st0" points="230.8,308.6 241.8,314.3 250.1,308.6 239.8,302.6 	"/>
        <polygon class="st0" points="244.8,317.6 255.8,323.3 264.1,317.6 253.8,311.6 	"/>
        <polygon class="st0" points="258.8,325.6 269.8,331.3 278.1,325.6 267.8,319.6 	"/>
        <polygon class="st0" points="168.8,259.6 179.8,265.3 188.1,259.6 177.8,253.6 	"/>
        <polygon class="st0" points="183.8,267.6 194.8,273.3 203.1,267.6 192.8,261.6 	"/>
        <polygon class="st0" points="197.8,276.6 208.8,282.3 217.1,276.6 206.8,270.6 	"/>
        <polygon class="st0" points="212.8,284.6 223.8,290.3 232.1,284.6 221.8,278.6 	"/>
        <polygon class="st0" points="226.8,293.6 237.8,299.3 246.1,293.6 235.8,287.6 	"/>
        <polygon class="st0" points="242.8,301.6 253.8,307.3 262.1,301.6 251.8,295.6 	"/>
        <polygon class="st0" points="256.8,310.6 267.8,316.3 276.1,310.6 265.8,304.6 	"/>
        <polygon class="st0" points="172.8,246.6 183.8,252.3 192.1,246.6 181.8,240.6 	"/>
        <polygon class="st0" points="187.8,255.6 198.8,261.3 207.1,255.6 196.8,249.6 	"/>
        <polygon class="st0" points="202.8,263.6 213.8,269.3 222.1,263.6 211.8,257.6 	"/>
        <polygon class="st0" points="216.8,272.6 227.8,278.3 236.1,272.6 225.8,266.6 	"/>
        <polygon class="st0" points="231.8,280.6 242.8,286.3 251.1,280.6 240.8,274.6 	"/>
        <polygon class="st0" points="245.8,289.6 256.8,295.3 265.1,289.6 254.8,283.6 	"/>
        <polygon class="st0" points="261.8,297.6 272.8,303.3 281.1,297.6 270.8,291.6 	"/>
        <polygon class="st0" points="275.8,306.6 286.8,312.3 295.1,306.6 284.8,300.6 	"/>
        <polygon class="st0" points="231.8,324.6 242.8,330.3 251.1,324.6 240.8,318.6 	"/>
        <polygon class="st0" points="246.8,333.6 257.8,339.3 266.1,333.6 255.8,327.6 	"/>
        <polygon class="st0" points="261.8,342.6 272.8,348.3 281.1,342.6 270.8,336.6 	"/>
        <polygon class="st0" points="139.8,241.6 164.8,255.6 173.6,251.6 149.8,236.6 	"/>
        <polygon class="st0" points="152.8,234.6 168.8,244.3 177.8,238.6 161.8,228.6 	"/>
        <polygon class="st0" points="290.1,314.3 298.8,307.6 318,319.6 308.8,325.6 	"/>
        <polygon class="st0" points="281.1,312.3 306.8,327.6 284.8,340.6 273.3,333.4 284.1,325.6 271.4,318.6 	"/>
</g>
    <g>
	<g class="st2">
		<g class="st2">
			<defs>
				<path id="SVGID_1_" class="st2" d="M237.4,115.1l16.2-2.3c3.7-0.5,8.2,0.2,13.2,2.5c15.7,7.1,30.3,26.2,32.6,42.7
					c1.5,10.9-2.7,17.9-10.4,19.3l-16.2,2.3c7.6-1.4,11.9-8.4,10.4-19.3c-2.3-16.5-16.9-35.6-32.6-42.7
					C245.7,115.4,241.2,114.6,237.4,115.1z"/>
			</defs>
            <clipPath id="SVGID_2_">
				<use xlink:href="#SVGID_1_"  style="overflow:visible;"/>
			</clipPath>
            <use xlink:href="#SVGID_1_"  style="overflow:visible;fill:none;stroke:#000000;stroke-miterlimit:1;"/>
		</g>
        <g>
			<path class="st3" d="M237.4,115.1c3.7-0.5,8.2,0.2,13.2,2.5c15.7,7.1,30.3,26.2,32.6,42.7c1.5,10.9-2.7,17.9-10.4,19.3
				c15.7,12.6,28.6,32,32.2,49.9c-2.4,1-5.1,1.7-7.9,2.1c-8.7,1.2-19.2-0.6-30.8-5.8c-15.8-7.2-31.2-19.6-44-34.5
				c-0.8-14.2,5.6-23.1,16.4-24.6c1.7-0.2,3.4-0.3,5.2-0.2c-9.1-9-16-21.1-17.6-32C224.9,123.3,229.4,116.2,237.4,115.1z"/>
		</g>
        <g class="st2">
			<defs>
				<path id="SVGID_3_" class="st2" d="M272.9,179.6l16.2-2.3c15.7,12.6,28.6,32,32.2,49.9l-16.2,2.3
					C301.5,211.7,288.6,192.2,272.9,179.6z"/>
			</defs>
            <clipPath id="SVGID_4_">
				<use xlink:href="#SVGID_3_"  style="overflow:visible;"/>
			</clipPath>
            <use xlink:href="#SVGID_3_"  style="overflow:visible;fill:none;stroke:#000000;stroke-miterlimit:1;"/>
		</g>
        <g class="st2">
			<defs>
				<path id="SVGID_5_" class="st2" d="M305.1,229.6l16.2-2.3c-2.4,1-5.1,1.7-7.9,2.1l-16.2,2.3C300,231.3,302.6,230.6,305.1,229.6z
					"/>
			</defs>
            <clipPath id="SVGID_6_">
				<use xlink:href="#SVGID_5_"  style="overflow:visible;"/>
			</clipPath>
            <g class="st4">
				<path class="st5" d="M305.1,229.6l16.2-2.3c-2.4,1-5.1,1.7-7.9,2.1l-16.2,2.3C300,231.3,302.6,230.6,305.1,229.6"/>
			</g>
            <use xlink:href="#SVGID_5_"  style="overflow:visible;fill:none;stroke:#000000;stroke-miterlimit:1;"/>
		</g>
	</g>
</g>
</svg>
