<?xml version="1.0" encoding="utf-8"?>
<!-- Generator: Adobe Illustrator 25.2.0, SVG Export Plug-In . SVG Version: 6.00 Build 0)  -->
<svg version="1.1" id="Layer_1" xmlns="http://www.w3.org/2000/svg" xmlns:xlink="http://www.w3.org/1999/xlink" x="0px" y="0px"
     viewBox="0 0 425 502" style="enable-background:new 0 0 425 502;" xml:space="preserve">
<style type="text/css">
	.st0{fill:none;stroke:#222222;stroke-miterlimit:10;}
	.st1{fill:none;stroke:#222222;}
	.st2{enable-background:new    ;}
	.st3{fill:#ffe600;stroke:#000000;stroke-width:0.7599;stroke-miterlimit:1;}
</style>
    <g>
	<polygon class="st0" points="156.5,20.3 156.5,184.7 388.5,318.3 388.5,154.7 	"/>
        <polygon class="st0" points="149,7.8 149,189.1 397,333.8 397,150.8 	"/>
        <line class="st0" x1="397" y1="150.8" x2="404" y2="144.8"/>
        <polyline class="st0" points="149,189.1 5,273.8 259,420.8 397,333.8 404,325 404,144.8 160,3.8 149,7.8 	"/>
        <polyline class="st0" points="5,273.8 5,286.8 259,433.8 397,349.9 397,333.8 	"/>
        <line class="st0" x1="259" y1="420.8" x2="259" y2="433.8"/>
        <polygon class="st0" points="141,287.8 101,311.8 175.5,353.8 215.5,330.9 	"/>
        <polygon class="st0" points="351.4,367.1 351,374.8 364.5,367.1 364,359.8 	"/>
        <polygon class="st0" points="374.2,353.8 374.2,359.8 386.9,353.8 386.9,347.7 	"/>
        <path class="st0" d="M359.9,369.7l60.1,34.1l-60.1,39.3c0,0-20.2-18-50.2,0c-7.6,4.6-17.2,13.1-29.8,19.7c-5.2,2.7-15,11,0,22
		s30,14,44,9s40-21,43-27s3.4-14.9-7-24"/>
        <path class="st0" d="M272.1,472c0,0,13.9,16.8,31.9,19.8s18-14,24-18s25-13,40-10"/>
        <path class="st1" d="M326,455.8l6,3c0,0,3-12,10-11l6,2l-7-5C341,444.8,334,440.8,326,455.8z"/>
        <line class="st0" x1="332" y1="458.8" x2="348" y2="449.8"/>
        <polygon class="st0" points="116,254.8 141,269.8 150,263.8 125,248.8 	"/>
        <polygon class="st0" points="145,271.8 214,312.8 224,306.8 154,266.3 	"/>
        <polygon class="st0" points="219,314.8 230,320.5 238.4,314.8 228,308.8 	"/>
        <polygon class="st0" points="129,247.8 140,253.5 148.4,247.8 138,241.8 	"/>
        <polygon class="st0" points="143,255.8 154,261.5 162.4,255.8 152,249.8 	"/>
        <polygon class="st0" points="158,264.8 169,270.5 177.4,264.8 167,258.8 	"/>
        <polygon class="st0" points="173,272.8 184,278.5 192.4,272.8 182,266.8 	"/>
        <polygon class="st0" points="187,281.8 198,287.5 206.4,281.8 196,275.8 	"/>
        <polygon class="st0" points="202,289.8 213,295.5 221.4,289.8 211,283.8 	"/>
        <polygon class="st0" points="216,298.8 227,304.5 235.4,298.8 225,292.8 	"/>
        <polygon class="st0" points="232,306.8 243,312.5 251.4,306.8 241,300.8 	"/>
        <polygon class="st0" points="246,315.8 257,321.5 265.4,315.8 255,309.8 	"/>
        <polygon class="st0" points="260,323.8 271,329.5 279.4,323.8 269,317.8 	"/>
        <polygon class="st0" points="170,257.8 181,263.5 189.4,257.8 179,251.8 	"/>
        <polygon class="st0" points="185,265.8 196,271.5 204.4,265.8 194,259.8 	"/>
        <polygon class="st0" points="199,274.8 210,280.5 218.4,274.8 208,268.8 	"/>
        <polygon class="st0" points="214,282.8 225,288.5 233.4,282.8 223,276.8 	"/>
        <polygon class="st0" points="228,291.8 239,297.5 247.4,291.8 237,285.8 	"/>
        <polygon class="st0" points="244,299.8 255,305.5 263.4,299.8 253,293.8 	"/>
        <polygon class="st0" points="258,308.8 269,314.5 277.4,308.8 267,302.8 	"/>
        <polygon class="st0" points="174,244.8 185,250.5 193.4,244.8 183,238.8 	"/>
        <polygon class="st0" points="189,253.8 200,259.5 208.4,253.8 198,247.8 	"/>
        <polygon class="st0" points="204,261.8 215,267.5 223.4,261.8 213,255.8 	"/>
        <polygon class="st0" points="218,270.8 229,276.5 237.4,270.8 227,264.8 	"/>
        <polygon class="st0" points="233,278.8 244,284.5 252.4,278.8 242,272.8 	"/>
        <polygon class="st0" points="247,287.8 258,293.5 266.4,287.8 256,281.8 	"/>
        <polygon class="st0" points="263,295.8 274,301.5 282.4,295.8 272,289.8 	"/>
        <polygon class="st0" points="277,304.8 288,310.5 296.4,304.8 286,298.8 	"/>
        <polygon class="st0" points="233,322.8 244,328.5 252.4,322.8 242,316.8 	"/>
        <polygon class="st0" points="248,331.8 259,337.5 267.4,331.8 257,325.8 	"/>
        <polygon class="st0" points="263,340.8 274,346.5 282.4,340.8 272,334.8 	"/>
        <polygon class="st0" points="141,239.8 166,253.8 174.9,249.8 151,234.8 	"/>
        <polygon class="st0" points="154,232.8 170,242.5 179,236.8 163,226.8 	"/>
        <polygon class="st0" points="291.4,312.5 300,305.8 319.3,317.8 310,323.8 	"/>
        <polygon class="st0" points="282.4,310.5 308.1,325.8 286,338.8 274.6,331.6 285.4,323.8 272.7,316.8 	"/>
</g>
    <g>
	<g class="st2">
		<g>
			<polygon class="st3" points="205,87.4 319.2,157.8 319.2,179.1 205,108.7 			"/>
		</g>
        <g>
			<polygon class="st3" points="205,87.4 216.1,87.4 330.3,157.8 319.2,157.8 			"/>
		</g>
        <g>
			<rect x="319.2" y="157.8" class="st3" width="11.1" height="21.3"/>
		</g>
        <g>
			<rect x="319.4" y="225.5" class="st3" width="11.1" height="21.3"/>
		</g>
        <g>
			<polygon class="st3" points="205.2,155.1 319.4,225.5 319.4,246.8 205.2,176.4 			"/>
		</g>
        <g>
			<polygon class="st3" points="205.2,155.1 216.3,155.1 330.5,225.5 319.4,225.5 			"/>
		</g>
        <g>
			<polygon class="st3" points="205.2,121.2 319.4,191.6 319.4,212.9 205.2,142.5 			"/>
		</g>
        <g>
			<polygon class="st3" points="205.2,121.2 216.3,121.2 330.5,191.6 319.4,191.6 			"/>
		</g>
        <g>
			<rect x="319.4" y="191.6" class="st3" width="11.1" height="21.3"/>
		</g>
	</g>
</g>
</svg>