<svg xmlns="http://www.w3.org/2000/svg" width="26.369" height="23.151" viewBox="0 0 26.369 23.151">
    <g id="JrMhVU" transform="translate(-436.646 -602.383)">
        <g id="Gruppe_169" transform="translate(437.148 603.05)">
            <path id="Pfad_579" d="M449.755,605.564c.934-.59,1.778-1.219,2.7-1.69a6.771,6.771,0,0,1,8.421,1.556,6.374,6.374,0,0,1,1.6,4.98,5.513,5.513,0,0,1-1.036,2.558,11.146,11.146,0,0,1-1.226,1.517q-5.062,5.1-10.153,10.165c-.066.066-.138.127-.221.2-.088-.081-.167-.15-.24-.223q-5.08-5.079-10.157-10.161a7.434,7.434,0,0,1-2.161-3.646,6.044,6.044,0,0,1,1.064-4.805,6.816,6.816,0,0,1,8.788-2.2A11.418,11.418,0,0,1,449.755,605.564Z" transform="translate(-437.148 -603.05)" fill="none" stroke="#222" stroke-miterlimit="10" stroke-width="1"/>
        </g>
    </g>
</svg>