<svg id="Gruppe_186" data-name="Gruppe 186" xmlns="http://www.w3.org/2000/svg" width="31.41" height="32.861" viewBox="0 0 31.41 32.861">
    <path id="Rechteck_84" d="M3.569,0h0A3.569,3.569,0,0,1,7.139,3.569v8.8a0,0,0,0,1,0,0H0a0,0,0,0,1,0,0v-8.8A3.569,3.569,0,0,1,3.569,0Z" transform="translate(19.393 32.361) rotate(180)" fill="#fff" stroke="#222" stroke-miterlimit="10" stroke-width="1"/>
    <circle id="Ellipse_16" cx="7.5" cy="7.5" r="7.5" transform="translate(8.409 8.361)" fill="#fff" stroke="#222" stroke-miterlimit="10" stroke-width="1"/>
    <line id="Linie_12" y2="5.235" transform="translate(15.586)" fill="none" stroke="#222" stroke-miterlimit="10" stroke-width="1"/>
    <line id="Linie_13" x2="2.617" y2="4.534" transform="translate(7.749 2.164)" fill="none" stroke="#222" stroke-miterlimit="10" stroke-width="1"/>
    <line id="Linie_14" x2="4.534" y2="2.617" transform="translate(2.045 7.955)" fill="none" stroke="#222" stroke-miterlimit="10" stroke-width="1"/>
    <line id="Linie_15" x2="5.235" transform="translate(0 15.824)" fill="none" stroke="#222" stroke-miterlimit="10" stroke-width="1"/>
    <line id="Linie_16" y1="2.617" x2="4.534" transform="translate(2.164 21.043)" fill="none" stroke="#222" stroke-miterlimit="10" stroke-width="1"/>
    <line id="Linie_17" x1="4.534" y1="2.617" transform="translate(24.831 20.837)" fill="none" stroke="#222" stroke-miterlimit="10" stroke-width="1"/>
    <line id="Linie_18" x1="5.235" transform="translate(26.175 15.586)" fill="none" stroke="#222" stroke-miterlimit="10" stroke-width="1"/>
    <line id="Linie_19" x1="4.534" y2="2.617" transform="translate(24.712 7.749)" fill="none" stroke="#222" stroke-miterlimit="10" stroke-width="1"/>
    <line id="Linie_20" x1="2.617" y2="4.534" transform="translate(20.837 2.045)" fill="none" stroke="#222" stroke-miterlimit="10" stroke-width="1"/>
</svg>
